<?xml version="1.0" encoding="utf-8"?>
<!-- Generator: Adobe Illustrator 25.0.0, SVG Export Plug-In . SVG Version: 6.00 Build 0)  -->
<svg version="1.1" id="Layer_1" xmlns="http://www.w3.org/2000/svg" xmlns:xlink="http://www.w3.org/1999/xlink" x="0px" y="0px"
	 viewBox="0 0 600 600" style="enable-background:new 0 0 600 600;" xml:space="preserve">
<style type="text/css">
	.st0{fill:#333333;}
</style>
<g>
	<g>
		<g>
			<g>
				<path class="st0" d="M300,290c-3.86,0-7,3.14-7,7c0,1.16,0.29,2.31,0.84,3.33l5.78,10.45c0.08,0.14,0.22,0.23,0.38,0.23
					s0.31-0.09,0.38-0.23l5.78-10.45c0.55-1.02,0.84-2.16,0.84-3.32C307,293.14,303.86,290,300,290z M305.39,299.9l-5.39,9.76
					l-5.39-9.75c-0.48-0.89-0.73-1.89-0.73-2.91c0-3.38,2.75-6.13,6.13-6.13c3.38,0,6.13,2.75,6.13,6.13
					C306.13,298.01,305.87,299.02,305.39,299.9z"/>
				<path class="st0" d="M300,293.5c-1.93,0-3.5,1.57-3.5,3.5s1.57,3.5,3.5,3.5s3.5-1.57,3.5-3.5
					C303.5,295.07,301.93,293.5,300,293.5z M300,299.62c-1.45,0-2.63-1.18-2.63-2.63s1.18-2.63,2.63-2.63s2.63,1.18,2.63,2.63
					C302.63,298.45,301.45,299.62,300,299.62z"/>
			</g>
		</g>
	</g>
</g>
</svg>
